<svg width="1440" height="145" viewBox="0 0 1440 145" fill="none" xmlns="http://www.w3.org/2000/svg">
<path d="M-1 0H1440V121H-1V0Z" fill="url(#paint0_linear_103_544)"/>
<g clip-path="url(#clip0_103_544)">
<path fill-rule="evenodd" clip-rule="evenodd" d="M1382.75 75.75C1382.75 76.8853 1382.32 77.9788 1381.55 78.8112C1380.78 79.6437 1379.72 80.1536 1378.59 80.2388L1378.25 80.25H1373.75C1372.61 80.2504 1371.52 79.8216 1370.69 79.0496C1369.86 78.2777 1369.35 77.2196 1369.26 76.0875L1369.25 75.75H1382.75ZM1376 37.5C1380.08 37.4999 1384.01 39.086 1386.94 41.9237C1389.88 44.7613 1391.6 48.6287 1391.74 52.71L1391.75 53.25V61.719L1395.85 69.918C1396.03 70.2758 1396.12 70.6715 1396.11 71.0714C1396.1 71.4714 1396 71.8635 1395.81 72.2143C1395.61 72.5651 1395.34 72.8641 1395.01 73.0856C1394.67 73.3072 1394.29 73.4447 1393.89 73.4865L1393.64 73.5H1358.36C1357.96 73.5001 1357.57 73.4032 1357.22 73.2176C1356.86 73.032 1356.56 72.7632 1356.33 72.4343C1356.1 72.1054 1355.96 71.7261 1355.91 71.329C1355.86 70.9319 1355.91 70.5288 1356.05 70.1543L1356.15 69.918L1360.25 61.719V53.25C1360.25 49.0728 1361.91 45.0668 1364.86 42.1131C1367.82 39.1594 1371.82 37.5 1376 37.5ZM1376 42C1373.1 42.0002 1370.31 43.1195 1368.22 45.1245C1366.13 47.1295 1364.89 49.8654 1364.76 52.7618L1364.75 53.25V61.719C1364.75 62.277 1364.65 62.8302 1364.44 63.3503L1364.28 63.7327L1361.64 69H1390.36L1387.73 63.7305C1387.48 63.2316 1387.32 62.6907 1387.27 62.1353L1387.25 61.719V53.25C1387.25 50.2663 1386.06 47.4048 1383.95 45.295C1381.85 43.1853 1378.98 42 1376 42Z" fill="#30485F"/>
</g>
<path d="M1180.71 45.5625H1173.77V43.25C1173.77 40.7967 1172.79 38.444 1171.06 36.7093C1169.32 34.9746 1166.97 34 1164.51 34C1162.06 34 1159.7 34.9746 1157.97 36.7093C1156.23 38.444 1155.26 40.7967 1155.26 43.25V45.5625H1148.31C1147.7 45.5625 1147.11 45.8061 1146.68 46.2398C1146.24 46.6735 1146 47.2617 1146 47.875V73.3125C1146 75.1524 1146.73 76.917 1148.03 78.2181C1149.34 79.5191 1151.1 80.25 1152.94 80.25H1176.08C1177.92 80.25 1179.69 79.5191 1180.99 78.2181C1182.29 76.917 1183.03 75.1524 1183.03 73.3125V47.875C1183.03 47.2617 1182.78 46.6735 1182.35 46.2398C1181.91 45.8061 1181.33 45.5625 1180.71 45.5625ZM1159.88 43.25C1159.88 42.0234 1160.37 40.847 1161.24 39.9796C1162.11 39.1123 1163.29 38.625 1164.51 38.625C1165.74 38.625 1166.92 39.1123 1167.79 39.9796C1168.65 40.847 1169.14 42.0234 1169.14 43.25V45.5625H1159.88V43.25ZM1178.4 73.3125C1178.4 73.9258 1178.15 74.514 1177.72 74.9477C1177.29 75.3814 1176.7 75.625 1176.08 75.625H1152.94C1152.33 75.625 1151.74 75.3814 1151.31 74.9477C1150.87 74.514 1150.63 73.9258 1150.63 73.3125V50.1875H1155.26V52.5C1155.26 53.1133 1155.5 53.7015 1155.93 54.1352C1156.37 54.5689 1156.96 54.8125 1157.57 54.8125C1158.18 54.8125 1158.77 54.5689 1159.21 54.1352C1159.64 53.7015 1159.88 53.1133 1159.88 52.5V50.1875H1169.14V52.5C1169.14 53.1133 1169.38 53.7015 1169.82 54.1352C1170.25 54.5689 1170.84 54.8125 1171.46 54.8125C1172.07 54.8125 1172.66 54.5689 1173.09 54.1352C1173.53 53.7015 1173.77 53.1133 1173.77 52.5V50.1875H1178.4V73.3125Z" fill="#30485F"/>
<path d="M1283.1 75.25V71C1283.1 68.7457 1282.2 66.5837 1280.6 64.9896C1279.01 63.3955 1276.85 62.5 1274.59 62.5H1257.58C1255.32 62.5 1253.16 63.3955 1251.56 64.9896C1249.97 66.5837 1249.07 68.7457 1249.07 71V75.25" stroke="#30485F" stroke-width="5" stroke-linecap="round" stroke-linejoin="round"/>
<path d="M1266.08 54C1270.78 54 1274.59 50.1944 1274.59 45.5C1274.59 40.8056 1270.78 37 1266.08 37C1261.39 37 1257.58 40.8056 1257.58 45.5C1257.58 50.1944 1261.39 54 1266.08 54Z" stroke="#30485F" stroke-width="5" stroke-linecap="round" stroke-linejoin="round"/>
<g filter="url(#filter0_d_103_544)">
<path d="M82.1866 35.2229H90.0336" stroke="#30485F" stroke-width="8.19" stroke-linecap="round" stroke-linejoin="round"/>
<g filter="url(#filter1_d_103_544)">
<path d="M113.575 63.535C110.958 85.1048 104.421 95.8917 93.9571 95.8917H78.263C67.799 95.8917 61.2624 85.1048 58.6454 63.535" stroke="#30485F" stroke-width="8.19" stroke-linecap="round" stroke-linejoin="round" shape-rendering="crispEdges"/>
</g>
<g filter="url(#filter2_d_103_544)">
<path d="M82.1866 79.7134C82.1866 82.4111 83.4931 83.758 86.1101 83.758C88.7271 83.758 90.0336 82.4111 90.0336 79.7134H82.1866Z" stroke="#30485F" stroke-width="8.19" stroke-linecap="round" stroke-linejoin="round" shape-rendering="crispEdges"/>
</g>
<path d="M86.11 87.8026V95.8917" stroke="#30485F" stroke-width="8.19" stroke-linecap="round" stroke-linejoin="round"/>
<path d="M78.263 59.4905V59.5302" stroke="#30485F" stroke-width="8.19" stroke-linecap="round" stroke-linejoin="round"/>
<path d="M93.9572 59.4905V59.5302" stroke="#30485F" stroke-width="8.19" stroke-linecap="round" stroke-linejoin="round"/>
<g filter="url(#filter3_d_103_544)">
<path d="M58.6454 31.1783L82.1865 35.1016L57.7116 62.1518C57.0241 62.9484 56.0643 63.44 55.0331 63.5236C54.002 63.6073 52.9794 63.2766 52.1794 62.6007C51.6369 62.1456 51.229 61.5428 51.0022 60.8607C50.7755 60.1787 50.7388 59.4447 50.8964 58.7422L58.6454 31.1783Z" stroke="#30485F" stroke-width="8.19" stroke-linecap="round" stroke-linejoin="round" shape-rendering="crispEdges"/>
</g>
<g filter="url(#filter4_d_103_544)">
<path d="M113.575 31.1783L90.0336 35.1016L114.509 62.1518C115.913 63.802 118.389 64.0042 120.041 62.6007C120.583 62.1456 120.991 61.5428 121.218 60.8607C121.445 60.1787 121.481 59.4447 121.324 58.7422L113.575 31.1783Z" stroke="#30485F" stroke-width="8.19" stroke-linecap="round" stroke-linejoin="round" shape-rendering="crispEdges"/>
</g>
</g>
<path d="M143.749 77.84C144.581 77.84 145.242 77.4987 145.733 76.816C146.224 76.112 146.469 75.0667 146.469 73.68C146.469 70.9067 145.562 69.52 143.749 69.52C143.066 69.52 142.437 69.776 141.861 70.288C141.306 70.8 141.029 71.344 141.029 71.92V75.44C141.029 76.016 141.306 76.56 141.861 77.072C142.437 77.584 143.066 77.84 143.749 77.84ZM145.989 65.04C147.952 65.04 149.509 65.7867 150.661 67.28C151.813 68.752 152.389 70.8853 152.389 73.68C152.389 76.4107 151.781 78.5333 150.565 80.048C149.37 81.5627 147.845 82.32 145.989 82.32C144.304 82.32 142.736 81.68 141.285 80.4C141.264 80.3787 141.242 80.368 141.221 80.368C141.2 80.368 141.189 80.3787 141.189 80.4V87.216C141.189 87.7067 141.008 88.1333 140.645 88.496C140.282 88.8587 139.856 89.04 139.365 89.04H136.933C136.442 89.04 136.016 88.8587 135.653 88.496C135.29 88.1333 135.109 87.7067 135.109 87.216V67.184C135.109 66.6933 135.29 66.2667 135.653 65.904C136.016 65.5413 136.442 65.36 136.933 65.36H139.109C139.621 65.36 140.058 65.5413 140.421 65.904C140.784 66.2453 140.976 66.672 140.997 67.184V67.44C140.997 67.4613 141.008 67.472 141.029 67.472C141.05 67.472 141.072 67.4613 141.093 67.44C142.416 65.84 144.048 65.04 145.989 65.04ZM165.397 72.08C165.589 72.08 165.685 71.984 165.685 71.792C165.664 70.8107 165.451 70.1067 165.045 69.68C164.661 69.2533 164.075 69.04 163.285 69.04C162.453 69.04 161.824 69.2533 161.397 69.68C160.992 70.0853 160.736 70.8 160.629 71.824C160.629 71.9947 160.715 72.08 160.885 72.08H165.397ZM163.125 65.04C168.544 65.04 171.264 67.8987 171.285 73.616C171.285 74.128 171.093 74.5653 170.709 74.928C170.325 75.2693 169.867 75.44 169.333 75.44H160.949C160.757 75.44 160.683 75.536 160.725 75.728C160.917 76.624 161.333 77.2533 161.973 77.616C162.635 77.9787 163.659 78.16 165.045 78.16C165.92 78.16 166.987 78.032 168.245 77.776C168.693 77.6693 169.099 77.7653 169.461 78.064C169.824 78.3413 170.005 78.7147 170.005 79.184V79.696C170.005 80.2293 169.835 80.72 169.493 81.168C169.173 81.5947 168.757 81.8507 168.245 81.936C166.944 82.192 165.557 82.32 164.085 82.32C161.056 82.32 158.72 81.584 157.077 80.112C155.456 78.6187 154.645 76.4747 154.645 73.68C154.645 70.9067 155.371 68.7733 156.821 67.28C158.272 65.7867 160.373 65.04 163.125 65.04ZM185.823 66C186.313 66 186.74 66.1813 187.103 66.544C187.465 66.9067 187.647 67.3333 187.647 67.824V68.336C187.647 68.8267 187.465 69.2533 187.103 69.616C186.74 69.9787 186.313 70.16 185.823 70.16H182.975C182.783 70.16 182.687 70.256 182.687 70.448V74.96C182.687 76.24 182.793 77.04 183.007 77.36C183.22 77.68 183.7 77.84 184.447 77.84C184.745 77.84 185.108 77.808 185.535 77.744C185.983 77.68 186.388 77.7973 186.751 78.096C187.135 78.3733 187.327 78.736 187.327 79.184V80.016C187.327 80.5493 187.156 81.0293 186.815 81.456C186.495 81.8613 186.079 82.096 185.567 82.16C184.82 82.2667 183.913 82.32 182.847 82.32C180.564 82.32 178.953 81.8293 178.015 80.848C177.076 79.8667 176.607 78.1173 176.607 75.6V70.448C176.607 70.256 176.511 70.16 176.319 70.16H175.071C174.58 70.16 174.153 69.9787 173.791 69.616C173.428 69.2533 173.247 68.8267 173.247 68.336V67.824C173.247 67.3333 173.428 66.9067 173.791 66.544C174.153 66.1813 174.58 66 175.071 66H176.319C176.511 66 176.607 65.904 176.607 65.712V61.744C176.607 61.2533 176.788 60.8267 177.151 60.464C177.513 60.1013 177.94 59.92 178.431 59.92H180.863C181.353 59.92 181.78 60.1013 182.143 60.464C182.505 60.8267 182.687 61.2533 182.687 61.744V65.712C182.687 65.904 182.783 66 182.975 66H185.823ZM206.771 77.168C207.176 77.8293 207.827 78.16 208.723 78.16C209.619 78.16 210.269 77.8293 210.675 77.168C211.08 76.4853 211.283 75.3227 211.283 73.68C211.283 72.0373 211.08 70.8853 210.675 70.224C210.269 69.5413 209.619 69.2 208.723 69.2C207.827 69.2 207.176 69.5413 206.771 70.224C206.365 70.8853 206.163 72.0373 206.163 73.68C206.163 75.3227 206.365 76.4853 206.771 77.168ZM202.355 67.344C203.869 65.808 205.992 65.04 208.723 65.04C211.453 65.04 213.576 65.808 215.091 67.344C216.605 68.8587 217.363 70.9707 217.363 73.68C217.363 76.3893 216.605 78.512 215.091 80.048C213.576 81.5627 211.453 82.32 208.723 82.32C205.992 82.32 203.869 81.5627 202.355 80.048C200.84 78.512 200.083 76.3893 200.083 73.68C200.083 70.9707 200.84 68.8587 202.355 67.344ZM249.481 58C249.972 58 250.399 58.1813 250.761 58.544C251.124 58.9067 251.305 59.3333 251.305 59.824V60.656C251.305 61.1467 251.124 61.5733 250.761 61.936C250.399 62.2987 249.972 62.48 249.481 62.48H247.049C246.559 62.48 246.132 62.2987 245.769 61.936C245.407 61.5733 245.225 61.1467 245.225 60.656V59.824C245.225 59.3333 245.407 58.9067 245.769 58.544C246.132 58.1813 246.559 58 247.049 58H249.481ZM249.481 66C249.972 66 250.399 66.1813 250.761 66.544C251.124 66.9067 251.305 67.3333 251.305 67.824V80.176C251.305 80.6667 251.124 81.0933 250.761 81.456C250.399 81.8187 249.972 82 249.481 82H247.049C246.559 82 246.132 81.8187 245.769 81.456C245.407 81.0933 245.225 80.6667 245.225 80.176V70.448C245.225 70.256 245.129 70.16 244.937 70.16H240.041C239.871 70.16 239.785 70.256 239.785 70.448V80.176C239.785 80.6667 239.604 81.0933 239.241 81.456C238.879 81.8187 238.452 82 237.961 82H235.529C235.039 82 234.612 81.8187 234.249 81.456C233.887 81.0933 233.705 80.6667 233.705 80.176V70.448C233.705 70.256 233.609 70.16 233.417 70.16H228.521C228.351 70.16 228.265 70.256 228.265 70.448V80.176C228.265 80.6667 228.084 81.0933 227.721 81.456C227.359 81.8187 226.932 82 226.441 82H224.009C223.519 82 223.092 81.8187 222.729 81.456C222.367 81.0933 222.185 80.6667 222.185 80.176V70.448C222.185 70.256 222.089 70.16 221.897 70.16H221.449C220.959 70.16 220.532 69.9787 220.169 69.616C219.807 69.2533 219.625 68.8267 219.625 68.336V67.824C219.625 67.3333 219.807 66.9067 220.169 66.544C220.532 66.1813 220.959 66 221.449 66H221.897C222.089 66 222.185 65.904 222.185 65.712V65.36C222.185 62.928 222.697 61.1467 223.721 60.016C224.745 58.8853 226.356 58.32 228.553 58.32C229.428 58.32 230.175 58.3627 230.793 58.448C231.305 58.5333 231.732 58.7893 232.073 59.216C232.415 59.6213 232.585 60.0907 232.585 60.624V61.296C232.585 61.744 232.404 62.1067 232.041 62.384C231.7 62.6613 231.305 62.768 230.857 62.704C230.473 62.6613 230.196 62.64 230.025 62.64C229.321 62.64 228.852 62.8107 228.617 63.152C228.383 63.4933 228.265 64.2293 228.265 65.36V65.712C228.265 65.904 228.351 66 228.521 66H233.417C233.609 66 233.705 65.904 233.705 65.712V65.36C233.705 60.6667 235.785 58.32 239.945 58.32C240.692 58.32 241.492 58.3733 242.345 58.48C242.857 58.544 243.273 58.7893 243.593 59.216C243.935 59.6213 244.105 60.0907 244.105 60.624V61.296C244.105 61.744 243.924 62.1067 243.561 62.384C243.22 62.6613 242.825 62.768 242.377 62.704C241.993 62.6613 241.716 62.64 241.545 62.64C240.841 62.64 240.372 62.8107 240.137 63.152C239.903 63.4933 239.785 64.2293 239.785 65.36V65.712C239.785 65.904 239.871 66 240.041 66H249.481ZM266.972 77.616C267.441 77.5307 267.857 77.6267 268.22 77.904C268.583 78.1813 268.764 78.5547 268.764 79.024V79.856C268.764 80.3893 268.593 80.8587 268.252 81.264C267.932 81.6693 267.505 81.9147 266.972 82C265.479 82.2133 264.209 82.32 263.164 82.32C260.327 82.32 258.151 81.5947 256.636 80.144C255.121 78.6933 254.364 76.5387 254.364 73.68C254.364 70.8853 255.089 68.752 256.54 67.28C258.012 65.7867 260.113 65.04 262.844 65.04C263.889 65.04 265.159 65.1467 266.652 65.36C267.185 65.4453 267.612 65.6907 267.932 66.096C268.273 66.5013 268.444 66.9707 268.444 67.504V68.336C268.444 68.8053 268.263 69.1787 267.9 69.456C267.537 69.7333 267.121 69.8293 266.652 69.744C265.777 69.5947 264.881 69.52 263.964 69.52C262.876 69.52 262.065 69.8507 261.532 70.512C261.02 71.1733 260.764 72.2293 260.764 73.68C260.764 75.152 261.041 76.2187 261.596 76.88C262.172 77.52 263.068 77.84 264.284 77.84C265.201 77.84 266.097 77.7653 266.972 77.616ZM282.272 72.08C282.464 72.08 282.56 71.984 282.56 71.792C282.539 70.8107 282.326 70.1067 281.92 69.68C281.536 69.2533 280.95 69.04 280.16 69.04C279.328 69.04 278.699 69.2533 278.272 69.68C277.867 70.0853 277.611 70.8 277.504 71.824C277.504 71.9947 277.59 72.08 277.76 72.08H282.272ZM280 65.04C285.419 65.04 288.139 67.8987 288.16 73.616C288.16 74.128 287.968 74.5653 287.584 74.928C287.2 75.2693 286.742 75.44 286.208 75.44H277.824C277.632 75.44 277.558 75.536 277.6 75.728C277.792 76.624 278.208 77.2533 278.848 77.616C279.51 77.9787 280.534 78.16 281.92 78.16C282.795 78.16 283.862 78.032 285.12 77.776C285.568 77.6693 285.974 77.7653 286.336 78.064C286.699 78.3413 286.88 78.7147 286.88 79.184V79.696C286.88 80.2293 286.71 80.72 286.368 81.168C286.048 81.5947 285.632 81.8507 285.12 81.936C283.819 82.192 282.432 82.32 280.96 82.32C277.931 82.32 275.595 81.584 273.952 80.112C272.331 78.6187 271.52 76.4747 271.52 73.68C271.52 70.9067 272.246 68.7733 273.696 67.28C275.147 65.7867 277.248 65.04 280 65.04Z" fill="#30485F"/>
<g filter="url(#filter5_d_103_544)">
<path d="M74.6709 128.354L84.5254 137.3C84.8911 137.633 85.3748 137.818 85.8774 137.818C86.3801 137.818 86.8637 137.633 87.2295 137.3L97.0839 128.354C97.3423 128.119 97.53 127.82 97.6272 127.491C97.7243 127.161 97.7273 126.813 97.6358 126.481L91.9694 105.906L97.3086 99.0411C97.5282 98.7587 97.6619 98.4229 97.6948 98.0714C97.7277 97.7198 97.6584 97.3664 97.4947 97.0507C97.331 96.735 97.0794 96.4694 96.768 96.2839C96.4567 96.0983 96.0979 96 95.7319 96H76.023C75.6569 96 75.2982 96.0983 74.9868 96.2839C74.6754 96.4694 74.4238 96.735 74.2601 97.0507C74.0964 97.3664 74.0272 97.7198 74.06 98.0714C74.0929 98.4229 74.2266 98.7587 74.4462 99.0411L79.7854 105.906L74.1191 126.481C74.0275 126.813 74.0305 127.161 74.1277 127.491C74.2248 127.82 74.4125 128.119 74.6709 128.354ZM91.7901 99.8014L88.8338 103.603H82.9211L79.9647 99.8014H91.7901ZM83.4513 107.404H88.3036L93.5245 126.364L85.8774 133.305L78.2304 126.364L83.4513 107.404Z" fill="#30485F" stroke="#30485F" stroke-width="2.1"/>
</g>
<defs>
<filter id="filter0_d_103_544" x="33.7053" y="18.0829" width="104.81" height="98.9038" filterUnits="userSpaceOnUse" color-interpolation-filters="sRGB">
<feFlood flood-opacity="0" result="BackgroundImageFix"/>
<feColorMatrix in="SourceAlpha" type="matrix" values="0 0 0 0 0 0 0 0 0 0 0 0 0 0 0 0 0 0 127 0" result="hardAlpha"/>
<feOffset dy="4"/>
<feGaussianBlur stdDeviation="6.5"/>
<feComposite in2="hardAlpha" operator="out"/>
<feColorMatrix type="matrix" values="0 0 0 0 0 0 0 0 0 0 0 0 0 0 0 0 0 0 0.25 0"/>
<feBlend mode="normal" in2="BackgroundImageFix" result="effect1_dropShadow_103_544"/>
<feBlend mode="normal" in="SourceGraphic" in2="effect1_dropShadow_103_544" result="shape"/>
</filter>
<filter id="filter1_d_103_544" x="52.55" y="59.4396" width="67.1202" height="46.5471" filterUnits="userSpaceOnUse" color-interpolation-filters="sRGB">
<feFlood flood-opacity="0" result="BackgroundImageFix"/>
<feColorMatrix in="SourceAlpha" type="matrix" values="0 0 0 0 0 0 0 0 0 0 0 0 0 0 0 0 0 0 127 0" result="hardAlpha"/>
<feOffset dy="4"/>
<feGaussianBlur stdDeviation="1"/>
<feComposite in2="hardAlpha" operator="out"/>
<feColorMatrix type="matrix" values="0 0 0 0 0 0 0 0 0 0 0 0 0 0 0 0 0 0 0.25 0"/>
<feBlend mode="normal" in2="BackgroundImageFix" result="effect1_dropShadow_103_544"/>
<feBlend mode="normal" in="SourceGraphic" in2="effect1_dropShadow_103_544" result="shape"/>
</filter>
<filter id="filter2_d_103_544" x="76.0916" y="75.6184" width="20.037" height="18.2346" filterUnits="userSpaceOnUse" color-interpolation-filters="sRGB">
<feFlood flood-opacity="0" result="BackgroundImageFix"/>
<feColorMatrix in="SourceAlpha" type="matrix" values="0 0 0 0 0 0 0 0 0 0 0 0 0 0 0 0 0 0 127 0" result="hardAlpha"/>
<feOffset dy="4"/>
<feGaussianBlur stdDeviation="1"/>
<feComposite in2="hardAlpha" operator="out"/>
<feColorMatrix type="matrix" values="0 0 0 0 0 0 0 0 0 0 0 0 0 0 0 0 0 0 0.25 0"/>
<feBlend mode="normal" in2="BackgroundImageFix" result="effect1_dropShadow_103_544"/>
<feBlend mode="normal" in="SourceGraphic" in2="effect1_dropShadow_103_544" result="shape"/>
</filter>
<filter id="filter3_d_103_544" x="44.7053" y="27.0829" width="43.5764" height="46.5485" filterUnits="userSpaceOnUse" color-interpolation-filters="sRGB">
<feFlood flood-opacity="0" result="BackgroundImageFix"/>
<feColorMatrix in="SourceAlpha" type="matrix" values="0 0 0 0 0 0 0 0 0 0 0 0 0 0 0 0 0 0 127 0" result="hardAlpha"/>
<feOffset dy="4"/>
<feGaussianBlur stdDeviation="1"/>
<feComposite in2="hardAlpha" operator="out"/>
<feColorMatrix type="matrix" values="0 0 0 0 0 0 0 0 0 0 0 0 0 0 0 0 0 0 0.25 0"/>
<feBlend mode="normal" in2="BackgroundImageFix" result="effect1_dropShadow_103_544"/>
<feBlend mode="normal" in="SourceGraphic" in2="effect1_dropShadow_103_544" result="shape"/>
</filter>
<filter id="filter4_d_103_544" x="83.9385" y="27.0829" width="43.5764" height="46.5466" filterUnits="userSpaceOnUse" color-interpolation-filters="sRGB">
<feFlood flood-opacity="0" result="BackgroundImageFix"/>
<feColorMatrix in="SourceAlpha" type="matrix" values="0 0 0 0 0 0 0 0 0 0 0 0 0 0 0 0 0 0 127 0" result="hardAlpha"/>
<feOffset dy="4"/>
<feGaussianBlur stdDeviation="1"/>
<feComposite in2="hardAlpha" operator="out"/>
<feColorMatrix type="matrix" values="0 0 0 0 0 0 0 0 0 0 0 0 0 0 0 0 0 0 0.25 0"/>
<feBlend mode="normal" in2="BackgroundImageFix" result="effect1_dropShadow_103_544"/>
<feBlend mode="normal" in="SourceGraphic" in2="effect1_dropShadow_103_544" result="shape"/>
</filter>
<filter id="filter5_d_103_544" x="71.0021" y="94.95" width="29.7507" height="49.918" filterUnits="userSpaceOnUse" color-interpolation-filters="sRGB">
<feFlood flood-opacity="0" result="BackgroundImageFix"/>
<feColorMatrix in="SourceAlpha" type="matrix" values="0 0 0 0 0 0 0 0 0 0 0 0 0 0 0 0 0 0 127 0" result="hardAlpha"/>
<feOffset dy="4"/>
<feGaussianBlur stdDeviation="1"/>
<feComposite in2="hardAlpha" operator="out"/>
<feColorMatrix type="matrix" values="0 0 0 0 0 0 0 0 0 0 0 0 0 0 0 0 0 0 0.25 0"/>
<feBlend mode="normal" in2="BackgroundImageFix" result="effect1_dropShadow_103_544"/>
<feBlend mode="normal" in="SourceGraphic" in2="effect1_dropShadow_103_544" result="shape"/>
</filter>
<linearGradient id="paint0_linear_103_544" x1="1440" y1="121" x2="-1.00001" y2="121" gradientUnits="userSpaceOnUse">
<stop stop-color="#EFB645"/>
<stop offset="0.677083" stop-color="#EDB546"/>
<stop offset="0.994792" stop-color="#ECAD3A"/>
</linearGradient>
<clipPath id="clip0_103_544">
<rect width="54" height="54" fill="white" transform="translate(1349 33)"/>
</clipPath>
</defs>
</svg>
