<svg width="18" height="18" viewBox="0 0 18 18" fill="none" xmlns="http://www.w3.org/2000/svg">
<path d="M3.33 3.33C3.43435 3.2255 3.55827 3.1426 3.69469 3.08604C3.8311 3.02948 3.97733 3.00037 4.125 3.00037C4.27268 3.00037 4.4189 3.02948 4.55532 3.08604C4.69173 3.1426 4.81565 3.2255 4.92 3.33L9 7.4085L13.08 3.33C13.1844 3.2256 13.3083 3.14278 13.4448 3.08628C13.5812 3.02978 13.7274 3.0007 13.875 3.0007C14.0226 3.0007 14.1688 3.02978 14.3053 3.08628C14.4417 3.14278 14.5656 3.2256 14.67 3.33C14.7744 3.4344 14.8572 3.55834 14.9137 3.69475C14.9702 3.83115 14.9993 3.97735 14.9993 4.125C14.9993 4.27264 14.9702 4.41884 14.9137 4.55525C14.8572 4.69166 14.7744 4.8156 14.67 4.92L10.5915 9L14.67 13.08C14.8808 13.2908 14.9993 13.5768 14.9993 13.875C14.9993 14.1732 14.8808 14.4592 14.67 14.67C14.4592 14.8808 14.1732 14.9993 13.875 14.9993C13.5768 14.9993 13.2908 14.8808 13.08 14.67L9 10.5915L4.92 14.67C4.70915 14.8808 4.42318 14.9993 4.125 14.9993C3.82682 14.9993 3.54085 14.8808 3.33 14.67C3.11915 14.4592 3.0007 14.1732 3.0007 13.875C3.0007 13.5768 3.11915 13.2908 3.33 13.08L7.4085 9L3.33 4.92C3.22551 4.81565 3.14261 4.69173 3.08604 4.55531C3.02948 4.4189 3.00037 4.27267 3.00037 4.125C3.00037 3.97732 3.02948 3.8311 3.08604 3.69468C3.14261 3.55827 3.22551 3.43435 3.33 3.33Z" fill="#F8BD00"/>
</svg>
