<svg width="22" height="24" viewBox="0 0 22 24" fill="none" xmlns="http://www.w3.org/2000/svg">
<path d="M15.2364 2.625C13.5168 2.625 11.9905 3.36844 10.9565 4.64625C9.9225 3.36844 8.39629 2.625 6.67663 2.625C5.17886 2.62698 3.74295 3.27952 2.68386 4.43947C1.62478 5.59942 1.02899 7.17208 1.02718 8.8125C1.02718 15.5944 10.0843 21.0131 10.4695 21.2409C10.6192 21.3292 10.7865 21.3755 10.9565 21.3755C11.1265 21.3755 11.2939 21.3292 11.4436 21.2409C11.8288 21.0131 20.8859 15.5944 20.8859 8.8125C20.8841 7.17208 20.2883 5.59942 19.2292 4.43947C18.1701 3.27952 16.7342 2.62698 15.2364 2.625ZM14.7665 15.9713C13.5743 17.0792 12.2999 18.0764 10.9565 18.9525C9.61311 18.0764 8.33871 17.0792 7.14656 15.9713C5.29166 14.2284 3.08152 11.5706 3.08152 8.8125C3.08152 7.76821 3.46029 6.76669 4.13451 6.02827C4.80872 5.28984 5.72315 4.875 6.67663 4.875C8.20027 4.875 9.47568 5.75625 10.0055 7.17563C10.0827 7.38254 10.2143 7.55961 10.3837 7.68425C10.553 7.80889 10.7525 7.87545 10.9565 7.87545C11.1606 7.87545 11.36 7.80889 11.5294 7.68425C11.6988 7.55961 11.8304 7.38254 11.9075 7.17563C12.4374 5.75625 13.7128 4.875 15.2364 4.875C16.1899 4.875 17.1043 5.28984 17.7785 6.02827C18.4528 6.76669 18.8315 7.76821 18.8315 8.8125C18.8315 11.5706 16.6214 14.2284 14.7665 15.9713Z" fill="#30485F"/>
</svg>
