<svg width="22" height="24" viewBox="0 0 22 24" fill="none" xmlns="http://www.w3.org/2000/svg">
<path d="M14.685 2.625C13.0276 2.625 11.5566 3.36844 10.56 4.64625C9.56339 3.36844 8.09241 2.625 6.43499 2.625C4.99142 2.62698 3.60748 3.27952 2.58672 4.43947C1.56597 5.59942 0.991737 7.17208 0.98999 8.8125C0.98999 15.5944 9.71931 21.0131 10.0906 21.2409C10.2348 21.3292 10.3961 21.3755 10.56 21.3755C10.7238 21.3755 10.8851 21.3292 11.0294 21.2409C11.4007 21.0131 20.13 15.5944 20.13 8.8125C20.1282 7.17208 19.554 5.59942 18.5333 4.43947C17.5125 3.27952 16.1286 2.62698 14.685 2.625ZM14.2321 15.9713C13.0831 17.0792 11.8548 18.0764 10.56 18.9525C9.26519 18.0764 8.03692 17.0792 6.88791 15.9713C5.10014 14.2284 2.96999 11.5706 2.96999 8.8125C2.96999 7.76821 3.33505 6.76669 3.98486 6.02827C4.63468 5.28984 5.51602 4.875 6.43499 4.875C7.90349 4.875 9.13274 5.75625 9.64341 7.17563C9.71774 7.38254 9.84462 7.55961 10.0079 7.68425C10.1711 7.80889 10.3633 7.87545 10.56 7.87545C10.7567 7.87545 10.9489 7.80889 11.1121 7.68425C11.2754 7.55961 11.4022 7.38254 11.4766 7.17563C11.9872 5.75625 13.2165 4.875 14.685 4.875C15.604 4.875 16.4853 5.28984 17.1351 6.02827C17.7849 6.76669 18.15 7.76821 18.15 8.8125C18.15 11.5706 16.0198 14.2284 14.2321 15.9713Z" fill="#30485F"/>
</svg>
