<svg width="24" height="24" viewBox="0 0 24 24" fill="none" xmlns="http://www.w3.org/2000/svg">
<rect width="24" height="24" rx="12" fill="white"/>
<path d="M12 7.89989C11.1891 7.89989 10.3964 8.14035 9.72218 8.59087C9.04794 9.04138 8.52243 9.68171 8.21211 10.4309C7.90179 11.1801 7.8206 12.0044 7.9788 12.7998C8.13699 13.5951 8.52748 14.3256 9.10088 14.899C9.67427 15.4724 10.4048 15.8629 11.2001 16.0211C11.9955 16.1793 12.8198 16.0981 13.569 15.7878C14.3182 15.4775 14.9585 14.952 15.409 14.2777C15.8596 13.6035 16.1 12.8108 16.1 11.9999C16.1013 11.4611 15.9962 10.9274 15.7906 10.4293C15.585 9.9313 15.2831 9.4788 14.9021 9.09781C14.5211 8.71683 14.0686 8.41488 13.5706 8.2093C13.0725 8.00372 12.5388 7.89857 12 7.89989ZM12 14.6699C11.4719 14.6699 10.9557 14.5133 10.5166 14.2199C10.0776 13.9265 9.73534 13.5095 9.53326 13.0217C9.33117 12.5338 9.2783 11.9969 9.38132 11.479C9.48434 10.9611 9.73863 10.4853 10.112 10.1119C10.4854 9.73851 10.9612 9.48422 11.4791 9.3812C11.9971 9.27817 12.5339 9.33105 13.0218 9.53313C13.5097 9.73522 13.9267 10.0774 14.22 10.5165C14.5134 10.9556 14.67 11.4718 14.67 11.9999C14.67 12.708 14.3887 13.3871 13.888 13.8879C13.3873 14.3886 12.7081 14.6699 12 14.6699ZM17.23 7.72989C17.23 7.92767 17.1714 8.12101 17.0615 8.28546C16.9516 8.44991 16.7954 8.57808 16.6127 8.65377C16.43 8.72946 16.2289 8.74926 16.0349 8.71068C15.8409 8.67209 15.6628 8.57685 15.5229 8.437C15.3831 8.29715 15.2878 8.11896 15.2492 7.92498C15.2106 7.731 15.2304 7.52994 15.3061 7.34721C15.3818 7.16448 15.51 7.0083 15.6744 6.89842C15.8389 6.78854 16.0322 6.72989 16.23 6.72989C16.4952 6.72989 16.7496 6.83525 16.9371 7.02279C17.1247 7.21032 17.23 7.46468 17.23 7.72989ZM19.94 8.72989C19.9691 7.48672 19.5054 6.28249 18.65 5.37989C17.7522 4.51358 16.5474 4.03885 15.3 4.05989C14 3.99989 10 3.99989 8.70001 4.05989C7.45722 4.03298 6.25379 4.49639 5.35001 5.34989C4.49465 6.25249 4.03093 7.45672 4.06001 8.69989C4.00001 9.99989 4.00001 13.9999 4.06001 15.2999C4.03093 16.5431 4.49465 17.7473 5.35001 18.6499C6.25379 19.5034 7.45722 19.9668 8.70001 19.9399C10.02 20.0199 13.98 20.0199 15.3 19.9399C16.5432 19.969 17.7474 19.5053 18.65 18.6499C19.5054 17.7473 19.9691 16.5431 19.94 15.2999C20 13.9999 20 9.99989 19.94 8.69989V8.72989ZM18.24 16.7299C18.1042 17.0738 17.8993 17.3862 17.6378 17.6477C17.3763 17.9091 17.064 18.1141 16.72 18.2499C15.1676 18.5637 13.5806 18.6713 12 18.5699C10.4228 18.6715 8.83902 18.5639 7.29001 18.2499C6.94608 18.1141 6.63369 17.9091 6.37223 17.6477C6.11076 17.3862 5.90579 17.0738 5.77001 16.7299C5.35001 15.6699 5.44001 13.1699 5.44001 12.0099C5.44001 10.8499 5.35001 8.33989 5.77001 7.28989C5.90196 6.94256 6.10547 6.62685 6.36733 6.36327C6.62919 6.09968 6.94355 5.89411 7.29001 5.75989C8.83902 5.44587 10.4228 5.33827 12 5.43989C13.5806 5.33844 15.1676 5.44604 16.72 5.75989C17.064 5.89567 17.3763 6.10064 17.6378 6.3621C17.8993 6.62357 18.1042 6.93595 18.24 7.27989C18.66 8.33989 18.56 10.8399 18.56 11.9999C18.56 13.1599 18.66 15.6699 18.24 16.7199V16.7299Z" fill="#407976" stroke="#407976" stroke-width="0.8"/>
</svg>
