<svg width="67" height="50" viewBox="0 0 67 50" fill="none" xmlns="http://www.w3.org/2000/svg">
<path d="M5.33333 42.3775H9.74297C10.2553 44.3165 11.3468 46.0344 12.8608 47.2737C14.4246 48.5538 16.3499 49.25 18.3333 49.25C20.3167 49.25 22.242 48.5538 23.8058 47.2737C25.3199 46.0344 26.4114 44.3165 26.9237 42.3775H40.0763C40.5886 44.3165 41.6801 46.0344 43.1942 47.2737C44.758 48.5538 46.6833 49.25 48.6667 49.25C50.6501 49.25 52.5754 48.5538 54.1392 47.2737C55.6532 46.0344 56.7447 44.3165 57.257 42.3775H61.6667C62.8867 42.3775 64.0538 41.8663 64.9122 40.9611C65.7702 40.0563 66.25 38.8319 66.25 37.5578V19.2789C66.2499 18.6768 66.0455 18.0929 65.6712 17.6331L53.3394 2.4811C53.3391 2.48074 53.3388 2.48038 53.3385 2.48001C52.9094 1.93977 52.3724 1.50423 51.7647 1.20496C51.1565 0.905449 50.4928 0.749953 49.8204 0.75H5.33333C4.11334 0.75 2.94619 1.2612 2.0878 2.16642C1.22983 3.07119 0.75 4.29561 0.75 5.56972V37.5578C0.75 38.8319 1.22983 40.0563 2.0878 40.9611C2.94619 41.8663 4.11334 42.3775 5.33333 42.3775ZM49.7015 5.81972L58.5923 16.744H44.5833V5.81972H49.7015ZM25.0833 16.744V5.81972H39.75V16.744H25.0833ZM20.25 5.81972V16.744H5.58333V5.81972H20.25ZM18.3333 44.1624C17.5288 44.1624 16.7411 43.9108 16.0699 43.4379C15.3984 42.9648 14.8732 42.2909 14.5625 41.5C14.2519 40.709 14.1704 39.838 14.3289 38.9975C14.4875 38.157 14.8785 37.3867 15.4506 36.7834C16.0226 36.1802 16.7498 35.771 17.5393 35.6054C18.3287 35.4398 19.1471 35.5247 19.8916 35.8499C20.6362 36.1751 21.2749 36.727 21.7252 37.4376C22.1756 38.1484 22.4167 38.9854 22.4167 39.8426C22.4167 40.9925 21.9834 42.0927 21.2161 42.9019C20.4491 43.7107 19.4119 44.1624 18.3333 44.1624ZM48.6667 44.1624C47.8621 44.1624 47.0744 43.9108 46.4032 43.4379C45.7318 42.9648 45.2065 42.2909 44.8959 41.5C44.5852 40.709 44.5037 39.838 44.6623 38.9975C44.8208 38.157 45.2118 37.3867 45.7839 36.7834C46.356 36.1802 47.0831 35.771 47.8726 35.6054C48.662 35.4398 49.4804 35.5247 50.2249 35.8499C50.9696 36.1751 51.6082 36.727 52.0585 37.4376C52.5089 38.1484 52.75 38.9854 52.75 39.8426C52.75 40.9925 52.3167 42.0927 51.5494 42.9019C50.7825 43.7107 49.7452 44.1624 48.6667 44.1624ZM61.4167 37.3078H57.257C56.7447 35.3688 55.6532 33.6509 54.1392 32.4116C52.5754 31.1315 50.6501 30.4353 48.6667 30.4353C46.6833 30.4353 44.758 31.1315 43.1942 32.4116C41.6801 33.6509 40.5886 35.3688 40.0763 37.3078H26.9237C26.4114 35.3688 25.3199 33.6509 23.8058 32.4116C22.242 31.1315 20.3167 30.4353 18.3333 30.4353C16.3499 30.4353 14.4246 31.1315 12.8608 32.4116C11.3468 33.6509 10.2553 35.3688 9.74297 37.3078H5.58333V21.8137H61.4167V37.3078Z" fill="#ECAD3A" stroke="#F8BD00" stroke-width="0.5"/>
</svg>
