<svg width="57" height="55" viewBox="0 0 57 55" fill="none" xmlns="http://www.w3.org/2000/svg">
<path d="M25.75 40.75H31.25V24.85H25.75V40.75ZM28.5 19.55C29.2792 19.55 29.9328 19.2956 30.4608 18.7868C30.9888 18.278 31.2518 17.6491 31.25 16.9C31.25 16.1492 30.986 15.5193 30.458 15.0105C29.93 14.5017 29.2773 14.2482 28.5 14.25C27.7208 14.25 27.0672 14.5044 26.5392 15.0132C26.0112 15.522 25.7482 16.1509 25.75 16.9C25.75 17.6508 26.014 18.2806 26.542 18.7894C27.07 19.2982 27.7227 19.5518 28.5 19.55ZM28.5 54C24.6958 54 21.1208 53.3039 17.775 51.9118C14.4292 50.5197 11.5188 48.632 9.04375 46.2487C6.56875 43.8637 4.60983 41.0592 3.167 37.835C1.72417 34.6108 1.00183 31.1658 1 27.5C1 23.8342 1.72233 20.3892 3.167 17.165C4.61167 13.9408 6.57058 11.1362 9.04375 8.75125C11.5188 6.36625 14.4292 4.47857 17.775 3.0882C21.1208 1.69783 24.6958 1.00177 28.5 1C32.3042 1 35.8792 1.69607 39.225 3.0882C42.5708 4.48033 45.4813 6.36802 47.9563 8.75125C50.4313 11.1362 52.3911 13.9408 53.8357 17.165C55.2804 20.3892 56.0018 23.8342 56 27.5C56 31.1658 55.2777 34.6108 53.833 37.835C52.3883 41.0592 50.4294 43.8637 47.9563 46.2487C45.4813 48.6337 42.5708 50.5223 39.225 51.9144C35.8792 53.3066 32.3042 54.0018 28.5 54ZM28.5 48.7C34.6417 48.7 39.8438 46.6462 44.1063 42.5387C48.3687 38.4312 50.5 33.4183 50.5 27.5C50.5 21.5817 48.3687 16.5687 44.1063 12.4612C39.8438 8.35375 34.6417 6.3 28.5 6.3C22.3583 6.3 17.1562 8.35375 12.8937 12.4612C8.63125 16.5687 6.5 21.5817 6.5 27.5C6.5 33.4183 8.63125 38.4312 12.8937 42.5387C17.1562 46.6462 22.3583 48.7 28.5 48.7Z" fill="#ECAD3A" stroke="#ECAD3A" stroke-width="0.5"/>
</svg>
